<?xml version="1.0" encoding="UTF-8"?>
<!DOCTYPE svg PUBLIC "-//W3C//DTD SVG 1.1//EN" "http://www.w3.org/Graphics/SVG/1.1/DTD/svg11.dtd">
<svg version="1.1" xmlns="http://www.w3.org/2000/svg" xmlns:xlink="http://www.w3.org/1999/xlink" x="0" y="0" width="1144" height="286" viewBox="0, 0, 1144, 286">
  <defs>
    <clipPath id="Clip_1">
      <path d="M174.543,236.124 L197.543,236.124 L197.543,216.124 L174.543,216.124 z"/>
    </clipPath>
    <pattern id="Pattern_1" patternUnits="userSpaceOnUse" x="879.044" y="42.869" width="48" height="48" patternTransform="matrix(0.177, -0.177, 0.177, 0.177, 0, 0)">
      <g transform="translate(0, -0)">
        <path d="M14,0 L16,0 L16,48 L14,48 L14,0 z" fill="#000000"/>
        <path d="M30,0 L32,0 L32,48 L30,48 L30,0 z" fill="#000000"/>
        <path d="M46,0 L48,0 L48,48 L46,48 L46,0 z" fill="#000000"/>
        <path d="M0,16 L0,14 L48,14 L48,16 L0,16 z" fill="#000000"/>
        <path d="M0,32 L0,30 L48,30 L48,32 L0,32 z" fill="#000000"/>
        <path d="M0,48 L0,46 L48,46 L48,48 L0,48 z" fill="#000000"/>
      </g>
    </pattern>
    <clipPath id="Clip_2">
      <path d="M1082.044,42.869 L1082.044,199.869 L879.044,199.869 L879.044,42.869 L1082.044,42.869 z"/>
    </clipPath>
    <clipPath id="Clip_3">
      <path d="M1055.825,42.869 L1081.492,63.72 L891.916,199.651 L879.044,163.37 L879.044,163.37 L1055.825,42.869 L1055.825,42.869 z"/>
    </clipPath>
  </defs>
  <g id="Layer_1">
    <path d="M10.009,283.955 L791.449,283.955 L791.449,2.831 L10.009,2.831 z" fill="#CCEFFC"/>
    <path d="M10.009,2.831 L791.449,2.831 L791.449,283.955 L10.009,283.955 z" fill-opacity="0" stroke="#000000" stroke-width="1"/>
    <path d="M10.09,284.286 C8.573,158.84 10.09,3.162 10.09,3.162 C10.09,3.162 526.205,1.673 791.193,3.162 C254.697,118.387 326.838,166.723 10.09,284.286 z" fill="#FFFFFF"/>
    <path d="M10.09,284.286 C8.573,158.84 10.09,3.162 10.09,3.162 C10.09,3.162 526.205,1.673 791.193,3.162 C254.697,118.387 326.838,166.723 10.09,284.286 z" fill-opacity="0" stroke="#000000" stroke-width="1"/>
    <path d="M22.926,13.423 C22.926,12.562 22.998,12.299 24.887,12.299 L25.508,12.299 L25.508,11.558 C24.671,11.63 22.782,11.63 21.874,11.63 C20.941,11.63 19.052,11.63 18.216,11.558 L18.216,12.299 L18.837,12.299 C20.726,12.299 20.798,12.562 20.798,13.423 L20.798,26.024 C20.798,26.884 20.726,27.147 18.837,27.147 L18.216,27.147 L18.216,27.889 C19.052,27.817 20.941,27.817 21.85,27.817 C22.782,27.817 24.671,27.817 25.508,27.889 L25.508,27.147 L24.887,27.147 C22.998,27.147 22.926,26.884 22.926,26.024 z" fill="#000000"/>
    <path d="M28.978,22.676 C28.978,18.779 30.938,17.774 32.205,17.774 C32.421,17.774 33.927,17.798 34.764,18.659 C33.784,18.731 33.64,19.448 33.64,19.759 C33.64,20.381 34.07,20.859 34.74,20.859 C35.362,20.859 35.84,20.452 35.84,19.735 C35.84,18.109 34.023,17.177 32.182,17.177 C29.193,17.177 26.993,19.759 26.993,22.724 C26.993,25.785 29.36,28.152 32.134,28.152 C35.338,28.152 36.103,25.282 36.103,25.043 C36.103,24.804 35.864,24.804 35.792,24.804 C35.577,24.804 35.529,24.9 35.481,25.043 C34.788,27.267 33.234,27.554 32.349,27.554 C31.082,27.554 28.978,26.526 28.978,22.676 z" fill="#000000"/>
    <path d="M39.477,21.863 C39.62,18.301 41.628,17.703 42.441,17.703 C44.904,17.703 45.143,20.931 45.143,21.863 z M39.453,22.365 L46.124,22.365 C46.65,22.365 46.721,22.365 46.721,21.863 C46.721,19.496 45.43,17.177 42.441,17.177 C39.668,17.177 37.468,19.639 37.468,22.628 C37.468,25.832 39.979,28.152 42.728,28.152 C45.645,28.152 46.721,25.497 46.721,25.043 C46.721,24.804 46.53,24.756 46.411,24.756 C46.195,24.756 46.148,24.9 46.1,25.091 C45.263,27.554 43.111,27.554 42.872,27.554 C41.676,27.554 40.72,26.837 40.17,25.952 C39.453,24.804 39.453,23.226 39.453,22.365 z" fill="#000000"/>
    <path d="M735.072,266.88 C735.072,262.002 731.461,258.129 727.11,258.129 C722.83,258.129 719.172,261.954 719.172,266.88 C719.172,271.781 722.854,275.511 727.11,275.511 C731.461,275.511 735.072,271.71 735.072,266.88 z M727.134,274.89 C724.838,274.89 721.634,272.786 721.634,266.545 C721.634,260.352 725.125,258.726 727.11,258.726 C729.19,258.726 732.609,260.424 732.609,266.545 C732.609,272.881 729.333,274.89 727.134,274.89 z" fill="#000000"/>
    <path d="M739.227,269.773 C739.227,265.876 741.188,264.871 742.455,264.871 C742.671,264.871 744.177,264.895 745.014,265.756 C744.033,265.828 743.89,266.545 743.89,266.856 C743.89,267.478 744.32,267.956 744.99,267.956 C745.612,267.956 746.09,267.549 746.09,266.832 C746.09,265.206 744.273,264.274 742.431,264.274 C739.443,264.274 737.243,266.856 737.243,269.821 C737.243,272.881 739.61,275.248 742.384,275.248 C745.588,275.248 746.353,272.379 746.353,272.14 C746.353,271.901 746.114,271.901 746.042,271.901 C745.827,271.901 745.779,271.997 745.731,272.14 C745.038,274.364 743.484,274.651 742.599,274.651 C741.331,274.651 739.227,273.623 739.227,269.773 z" fill="#000000"/>
    <path d="M749.734,268.96 C749.877,265.397 751.885,264.8 752.698,264.8 C755.161,264.8 755.4,268.028 755.4,268.96 z M749.71,269.462 L756.381,269.462 C756.907,269.462 756.978,269.462 756.978,268.96 C756.978,266.593 755.687,264.274 752.698,264.274 C749.925,264.274 747.725,266.736 747.725,269.725 C747.725,272.929 750.236,275.248 752.985,275.248 C755.902,275.248 756.978,272.594 756.978,272.14 C756.978,271.901 756.787,271.853 756.668,271.853 C756.452,271.853 756.404,271.997 756.357,272.188 C755.52,274.651 753.368,274.651 753.129,274.651 C751.933,274.651 750.977,273.933 750.427,273.049 C749.71,271.901 749.71,270.323 749.71,269.462 z" fill="#000000"/>
    <path d="M765.643,273.168 C765.739,274.125 766.385,275.129 767.509,275.129 C768.011,275.129 769.469,274.794 769.469,272.857 L769.469,271.518 L768.871,271.518 L768.871,272.857 C768.871,274.244 768.274,274.388 768.011,274.388 C767.221,274.388 767.126,273.312 767.126,273.192 L767.126,268.41 C767.126,267.406 767.126,266.473 766.265,265.589 C765.333,264.656 764.137,264.274 762.989,264.274 C761.029,264.274 759.379,265.397 759.379,266.976 C759.379,267.693 759.857,268.099 760.479,268.099 C761.148,268.099 761.579,267.621 761.579,266.999 C761.579,266.713 761.459,265.923 760.359,265.9 C761.005,265.063 762.177,264.8 762.942,264.8 C764.113,264.8 765.476,265.732 765.476,267.86 L765.476,268.745 C764.257,268.817 762.583,268.888 761.077,269.606 C759.283,270.419 758.686,271.662 758.686,272.714 C758.686,274.651 761.005,275.248 762.511,275.248 C764.089,275.248 765.189,274.292 765.643,273.168 z M765.476,269.247 L765.476,271.638 C765.476,273.91 763.755,274.722 762.679,274.722 C761.507,274.722 760.527,273.886 760.527,272.69 C760.527,271.375 761.531,269.39 765.476,269.247 z" fill="#000000"/>
    <path d="M772.267,266.76 L772.267,273.168 C772.267,274.244 772.004,274.244 770.402,274.244 L770.402,274.985 C771.239,274.962 772.458,274.914 773.104,274.914 C773.725,274.914 774.969,274.962 775.781,274.985 L775.781,274.244 C774.179,274.244 773.916,274.244 773.916,273.168 L773.916,268.769 C773.916,266.282 775.614,264.943 777.144,264.943 C778.651,264.943 778.914,266.234 778.914,267.597 L778.914,273.168 C778.914,274.244 778.651,274.244 777.049,274.244 L777.049,274.985 C777.885,274.962 779.105,274.914 779.75,274.914 C780.372,274.914 781.616,274.962 782.429,274.985 L782.429,274.244 C781.185,274.244 780.587,274.244 780.564,273.527 L780.564,268.96 C780.564,266.904 780.564,266.163 779.822,265.302 C779.487,264.895 778.698,264.417 777.312,264.417 C775.566,264.417 774.442,265.445 773.773,266.928 L773.773,264.417 L770.402,264.68 L770.402,265.421 C772.075,265.421 772.267,265.589 772.267,266.76 z" fill="#000000"/>
    <path d="M9.5,284.286 C211.424,235.778 186.452,247.922 211.424,235.778 C236.396,223.634 277.241,189.319 381.773,175.768 C486.306,162.218 498.889,165.122 540.509,138.02 C582.128,110.919 570.513,109.951 614.069,97.369 C657.624,84.786 689.119,93.497 736.024,77.043 C782.929,60.589 791.108,51.878 791.108,51.878" fill-opacity="0" stroke="#959595" stroke-width="2"/>
    <path d="M79.502,258.629 C84.918,272.044 85.37,272.495 79.502,283.955" fill-opacity="0" stroke="#000000" stroke-width="2"/>
    <path d="M101.089,272.713 C101.089,268.334 98.495,266.967 96.431,266.967 C92.609,266.967 88.927,270.956 88.927,274.889 C88.927,277.483 90.601,279.603 93.446,279.603 C95.203,279.603 97.212,278.962 99.332,277.26 C99.695,278.739 100.615,279.603 101.87,279.603 C103.349,279.603 104.214,278.069 104.214,277.623 C104.214,277.427 104.046,277.344 103.879,277.344 C103.684,277.344 103.6,277.427 103.516,277.623 C103.014,278.99 102.01,278.99 101.954,278.99 C101.089,278.99 101.089,276.814 101.089,276.144 C101.089,275.559 101.089,275.503 101.368,275.168 C103.991,271.876 104.576,268.641 104.576,268.613 C104.576,268.557 104.548,268.334 104.242,268.334 C103.963,268.334 103.963,268.417 103.823,268.919 C103.321,270.677 102.401,272.797 101.089,274.443 z M99.22,276.535 C96.766,278.683 94.618,278.99 93.502,278.99 C91.828,278.99 90.991,277.734 90.991,275.949 C90.991,274.582 91.717,271.569 92.609,270.147 C93.92,268.11 95.427,267.58 96.403,267.58 C99.165,267.58 99.165,271.235 99.165,273.411 C99.165,274.443 99.165,276.061 99.22,276.535 z" fill="#000000"/>
    <path d="M435.478,111.492 L447.959,152.579" fill-opacity="0" stroke="#000000" stroke-width="2"/>
    <path d="M438.922,110.446 L432.687,102.307 L432.033,112.539 z" fill="#000000"/>
    <path d="M438.922,110.446 L432.687,102.307 L432.033,112.539 z" fill-opacity="0" stroke="#000000" stroke-width="2"/>
    <path d="M444.515,153.626 L450.75,161.765 L451.404,151.533 z" fill="#000000"/>
    <path d="M444.515,153.626 L450.75,161.765 L451.404,151.533 z" fill-opacity="0" stroke="#000000" stroke-width="2"/>
    <path d="M454.208,129.573 C453.93,130.661 453.874,130.884 451.67,130.884 C451.196,130.884 450.889,130.884 450.889,131.414 C450.889,131.749 451.14,131.749 451.67,131.749 L460.903,131.749 C466.706,131.749 472.201,125.863 472.201,119.754 C472.201,115.821 469.83,112.697 465.646,112.697 L456.273,112.697 C455.743,112.697 455.436,112.697 455.436,113.227 C455.436,113.561 455.687,113.561 456.245,113.561 C456.607,113.561 457.11,113.589 457.444,113.617 C457.891,113.673 458.058,113.757 458.058,114.063 C458.058,114.175 458.03,114.259 457.946,114.593 z M460.234,114.621 C460.485,113.645 460.541,113.561 461.74,113.561 L464.725,113.561 C467.459,113.561 469.774,115.04 469.774,118.722 C469.774,120.089 469.216,124.664 466.845,127.732 C466.036,128.764 463.832,130.884 460.401,130.884 L457.249,130.884 C456.859,130.884 456.803,130.884 456.635,130.856 C456.356,130.828 456.273,130.801 456.273,130.577 C456.273,130.494 456.273,130.438 456.412,129.936 z" fill="#000000"/>
    <path d="M582.856,80.965 C583.135,79.821 583.637,78.984 585.869,78.901 C586.008,78.901 586.343,78.873 586.343,78.343 C586.343,78.315 586.343,78.036 585.98,78.036 C585.06,78.036 584.083,78.119 583.135,78.119 C582.187,78.119 581.154,78.036 580.234,78.036 C580.067,78.036 579.732,78.036 579.732,78.594 C579.732,78.901 580.011,78.901 580.234,78.901 C581.824,78.928 582.131,79.514 582.131,80.128 C582.131,80.212 582.075,80.63 582.047,80.714 L579.536,90.672 C578.588,94.41 575.38,96.837 572.591,96.837 C570.694,96.837 569.187,95.61 569.187,93.211 C569.187,93.155 569.187,92.262 569.494,91.035 L572.2,80.184 C572.451,79.18 572.507,78.901 574.543,78.901 C575.269,78.901 575.492,78.901 575.492,78.343 C575.492,78.036 575.185,78.036 575.101,78.036 C574.32,78.036 572.312,78.119 571.531,78.119 C570.722,78.119 568.741,78.036 567.932,78.036 C567.709,78.036 567.402,78.036 567.402,78.594 C567.402,78.901 567.653,78.901 568.183,78.901 C568.239,78.901 568.769,78.901 569.243,78.956 C569.745,79.012 569.996,79.04 569.996,79.403 C569.996,79.57 569.69,80.742 569.522,81.383 L568.908,83.838 C568.657,84.926 567.318,90.198 567.207,90.728 C567.012,91.509 567.012,91.928 567.012,92.346 C567.012,95.749 569.55,97.702 572.479,97.702 C575.994,97.702 579.453,94.55 580.373,90.868 z" fill="#000000"/>
    <path d="M508.952,84.05 L541.627,73.792" fill-opacity="0" stroke="#000000" stroke-width="2"/>
    <path d="M542.706,77.227 L550.787,70.916 L540.549,70.357 z" fill="#000000"/>
    <path d="M542.706,77.227 L550.787,70.916 L540.549,70.357 z" fill-opacity="0" stroke="#000000" stroke-width="2"/>
    <path d="M519.663,120.69 L552.338,110.432" fill-opacity="0" stroke="#000000" stroke-width="2"/>
    <path d="M553.416,113.867 L561.497,107.557 L551.26,106.998 z" fill="#000000"/>
    <path d="M553.416,113.867 L561.497,107.557 L551.26,106.998 z" fill-opacity="0" stroke="#000000" stroke-width="2"/>
    <path d="M514.442,102.321 L547.117,92.063" fill-opacity="0" stroke="#000000" stroke-width="2"/>
    <path d="M548.196,95.498 L556.276,89.187 L546.039,88.628 z" fill="#000000"/>
    <path d="M548.196,95.498 L556.276,89.187 L546.039,88.628 z" fill-opacity="0" stroke="#000000" stroke-width="2"/>
    <g clip-path="url(#Clip_1)">
      <path d="M187.316,224.162 L184.973,218.611 C184.889,218.388 184.833,218.276 184.833,218.249 C184.833,218.081 185.308,217.551 186.479,217.44 C186.758,217.412 187.037,217.384 187.037,216.91 C187.037,216.575 186.702,216.575 186.619,216.575 C185.475,216.575 184.275,216.658 183.104,216.658 C182.406,216.658 180.677,216.575 179.98,216.575 C179.812,216.575 179.477,216.575 179.477,217.133 C179.477,217.44 179.756,217.44 180.119,217.44 C181.793,217.44 181.96,217.719 182.211,218.332 L185.503,226.115 L179.617,232.447 L179.254,232.754 C177.887,234.232 176.576,234.679 175.154,234.763 C174.791,234.79 174.54,234.79 174.54,235.32 C174.54,235.348 174.54,235.627 174.903,235.627 C175.739,235.627 176.66,235.544 177.525,235.544 C178.557,235.544 179.645,235.627 180.649,235.627 C180.816,235.627 181.151,235.627 181.151,235.069 C181.151,234.79 180.872,234.763 180.816,234.763 C180.565,234.735 179.701,234.679 179.701,233.898 C179.701,233.451 180.119,233.005 180.454,232.642 L183.299,229.63 L185.81,226.896 L188.627,233.563 C188.739,233.87 188.767,233.898 188.767,233.954 C188.767,234.177 188.237,234.651 187.149,234.763 C186.842,234.79 186.591,234.818 186.591,235.293 C186.591,235.627 186.898,235.627 187.009,235.627 C187.79,235.627 189.743,235.544 190.524,235.544 C191.221,235.544 192.923,235.627 193.62,235.627 C193.816,235.627 194.15,235.627 194.15,235.097 C194.15,234.763 193.871,234.763 193.648,234.763 C191.779,234.735 191.723,234.651 191.249,233.535 C190.161,230.941 188.292,226.589 187.651,224.915 C189.548,222.963 192.477,219.643 193.369,218.862 C194.178,218.193 195.238,217.523 196.912,217.44 C197.275,217.412 197.526,217.412 197.526,216.882 C197.526,216.854 197.526,216.575 197.163,216.575 C196.326,216.575 195.406,216.658 194.541,216.658 C193.509,216.658 192.449,216.575 191.444,216.575 C191.277,216.575 190.914,216.575 190.914,217.133 C190.914,217.328 191.054,217.412 191.249,217.44 C191.5,217.467 192.365,217.523 192.365,218.304 C192.365,218.695 192.058,219.057 191.835,219.309 z" fill="#000000"/>
    </g>
    <path d="M36.502,150.442 C36.53,150.33 36.585,150.191 36.585,150.023 C36.585,149.772 36.446,149.772 35.888,149.772 L24.116,149.772 C23.447,149.772 23.419,149.8 23.251,150.33 L21.717,155.351 C21.661,155.491 21.633,155.686 21.633,155.742 C21.633,155.77 21.633,156.049 21.968,156.049 C22.219,156.049 22.275,155.853 22.331,155.77 C23.391,152.478 24.841,150.637 29.193,150.637 L33.74,150.637 L18.147,168.072 C18.147,168.099 18.035,168.49 18.035,168.574 C18.035,168.825 18.23,168.825 18.732,168.825 L30.867,168.825 C31.536,168.825 31.564,168.797 31.732,168.267 L33.712,162.102 C33.74,161.99 33.824,161.795 33.824,161.684 C33.824,161.544 33.712,161.377 33.461,161.377 C33.21,161.377 33.182,161.488 32.987,162.074 C31.759,165.868 30.421,167.876 25.678,167.876 L20.908,167.876 z" fill="#000000"/>
    <path d="M9.5,188.242 L9.5,284.286" fill-opacity="0" stroke="#000000" stroke-width="4" stroke-linecap="round"/>
    <path d="M14.3,188.242 L9.5,175.442 L4.7,188.242 z" fill="#000000"/>
    <path d="M14.3,188.242 L9.5,175.442 L4.7,188.242 z" fill-opacity="0" stroke="#000000" stroke-width="4"/>
    <path d="M152.226,232.895 L10.178,284.286" fill-opacity="0" stroke="#000000" stroke-width="4" stroke-linecap="round"/>
    <path d="M153.859,237.409 L164.263,228.54 L150.593,228.381 z" fill="#000000"/>
    <path d="M153.859,237.409 L164.263,228.54 L150.593,228.381 z" fill-opacity="0" stroke="#000000" stroke-width="4"/>
    <path d="M167.648,283.955 L10.009,284.286" fill-opacity="0" stroke="#000000" stroke-width="4" stroke-linecap="square"/>
    <path d="M361.256,204.418 C356.597,201.24 352.364,185.318 354.13,174.037" fill-opacity="0" stroke="#000000" stroke-width="2"/>
    <path d="M357.321,175.704 L358.575,165.528 L350.939,172.37 z" fill="#000000"/>
    <path d="M357.321,175.704 L358.575,165.528 L350.939,172.37 z" fill-opacity="0" stroke="#000000" stroke-width="2"/>
    <path d="M369.001,202.821 C369.001,202.068 368.359,201.343 367.522,201.343 C366.574,201.343 366.016,202.124 366.016,202.821 C366.016,203.574 366.658,204.3 367.494,204.3 C368.443,204.3 369.001,203.518 369.001,202.821 z" fill="#000000"/>
    <path d="M364.689,213.561 C365.498,213.561 367.562,213.505 368.957,212.919 C370.91,212.082 371.049,210.437 371.049,210.046 C371.049,208.819 369.989,207.675 368.065,207.675 C364.968,207.675 360.756,210.381 360.756,215.262 C360.756,218.108 362.402,220.311 365.136,220.311 C369.125,220.311 371.468,217.355 371.468,217.02 C371.468,216.852 371.301,216.657 371.133,216.657 C370.994,216.657 370.938,216.713 370.77,216.936 C368.567,219.698 365.526,219.698 365.191,219.698 C363.016,219.698 362.764,217.355 362.764,216.462 C362.764,216.127 362.792,215.262 363.211,213.561 z M363.378,212.947 C364.466,208.707 367.339,208.289 368.065,208.289 C369.376,208.289 370.129,209.098 370.129,210.046 C370.129,212.947 365.666,212.947 364.522,212.947 z" fill="#000000"/>
    <path d="M348.25,137.185 C345.218,126.628 344.825,111.507 351.905,106.898" fill-opacity="0" stroke="#000000" stroke-width="2"/>
    <path d="M345.074,138.879 L352.767,145.657 L351.427,135.492 z" fill="#000000"/>
    <path d="M345.074,138.879 L352.767,145.657 L351.427,135.492 z" fill-opacity="0" stroke="#000000" stroke-width="2"/>
    <path d="M361.54,84.331 C361.54,83.578 360.899,82.852 360.062,82.852 C359.114,82.852 358.556,83.633 358.556,84.331 C358.556,85.084 359.197,85.809 360.034,85.809 C360.983,85.809 361.54,85.028 361.54,84.331 z" fill="#000000"/>
    <path d="M350.267,99.868 C350.184,100.287 350.016,100.928 350.016,101.068 C350.016,101.57 350.407,101.821 350.825,101.821 C351.16,101.821 351.662,101.598 351.857,101.04 C351.885,100.984 352.22,99.673 352.387,98.976 L353.001,96.465 C353.168,95.852 353.336,95.238 353.475,94.596 C353.587,94.122 353.81,93.313 353.838,93.201 C354.256,92.337 355.735,89.798 358.385,89.798 C359.64,89.798 359.891,90.83 359.891,91.751 C359.891,92.448 359.696,93.229 359.473,94.066 L358.692,97.302 L358.134,99.422 C358.022,99.98 357.771,100.928 357.771,101.068 C357.771,101.57 358.162,101.821 358.58,101.821 C359.445,101.821 359.612,101.124 359.835,100.231 C360.226,98.669 361.258,94.596 361.509,93.508 C361.593,93.146 363.071,89.798 366.112,89.798 C367.311,89.798 367.618,90.747 367.618,91.751 C367.618,93.341 366.447,96.521 365.889,97.999 C365.638,98.669 365.526,98.976 365.526,99.534 C365.526,100.845 366.502,101.821 367.813,101.821 C370.436,101.821 371.468,97.748 371.468,97.525 C371.468,97.246 371.217,97.246 371.133,97.246 C370.854,97.246 370.854,97.33 370.715,97.748 C370.296,99.227 369.404,101.207 367.869,101.207 C367.395,101.207 367.2,100.928 367.2,100.287 C367.2,99.589 367.451,98.92 367.702,98.306 C368.232,96.856 369.404,93.759 369.404,92.169 C369.404,90.356 368.288,89.185 366.196,89.185 C364.103,89.185 362.681,90.412 361.649,91.89 C361.621,91.528 361.537,90.579 360.756,89.91 C360.059,89.324 359.166,89.185 358.469,89.185 C355.958,89.185 354.591,90.97 354.117,91.611 C353.977,90.021 352.806,89.185 351.551,89.185 C350.267,89.185 349.737,90.272 349.486,90.774 C348.984,91.751 348.622,93.397 348.622,93.48 C348.622,93.759 348.9,93.759 348.956,93.759 C349.235,93.759 349.263,93.731 349.43,93.118 C349.905,91.137 350.463,89.798 351.467,89.798 C351.913,89.798 352.332,90.021 352.332,91.081 C352.332,91.667 352.248,91.974 351.885,93.425 z" fill="#000000"/>
    <path d="M215.298,165.771 C215.277,165.675 215.268,165.546 215.204,165.418 C215.109,165.225 215.002,165.277 214.573,165.488 L205.519,169.942 C205.004,170.195 204.993,170.227 205.065,170.698 L205.784,175.14 C205.794,175.269 205.846,175.429 205.868,175.472 C205.878,175.494 205.984,175.708 206.241,175.582 C206.434,175.487 206.403,175.315 206.414,175.23 C205.985,172.297 206.404,170.332 209.751,168.686 L213.248,166.966 L207.85,186.275 C207.861,186.296 207.922,186.639 207.954,186.703 C208.049,186.896 208.199,186.822 208.585,186.632 L217.919,182.042 C218.434,181.789 218.444,181.757 218.373,181.286 L217.564,175.795 C217.543,175.698 217.534,175.516 217.491,175.431 C217.439,175.323 217.289,175.237 217.096,175.332 C216.903,175.427 216.924,175.523 216.995,176.048 C217.487,179.43 217.217,181.481 213.569,183.275 L209.9,185.08 z" fill="#000000"/>
    <path d="M240.235,162.352 C240.557,162.194 240.964,161.994 240.753,161.564 C240.542,161.135 240.135,161.336 239.834,161.484 L226.982,167.805 C226.682,167.952 226.274,168.153 226.485,168.582 C226.696,169.011 227.104,168.811 227.426,168.653 z M242.304,166.504 C242.604,166.356 243.012,166.156 242.8,165.727 C242.589,165.298 242.182,165.498 241.86,165.657 L229.051,171.957 C228.729,172.115 228.322,172.315 228.533,172.745 C228.744,173.174 229.151,172.973 229.452,172.825 z" fill="#000000"/>
    <path d="M260.087,143.742 C260.066,143.645 260.056,143.517 259.993,143.388 C259.898,143.195 259.79,143.248 259.361,143.459 L250.307,147.912 C249.792,148.166 249.781,148.198 249.853,148.669 L250.573,153.111 C250.582,153.239 250.635,153.4 250.656,153.443 C250.666,153.465 250.772,153.679 251.029,153.552 C251.223,153.458 251.192,153.286 251.203,153.201 C250.773,150.268 251.192,148.303 254.539,146.657 L258.036,144.937 L252.638,164.245 C252.649,164.267 252.711,164.609 252.743,164.674 C252.837,164.867 252.988,164.793 253.374,164.603 L262.707,160.013 C263.222,159.759 263.233,159.727 263.161,159.256 L262.352,153.766 C262.331,153.669 262.322,153.487 262.28,153.401 C262.227,153.294 262.078,153.208 261.885,153.303 C261.692,153.398 261.712,153.494 261.784,154.018 C262.275,157.401 262.005,159.452 258.357,161.246 L254.689,163.051 z" fill="#000000"/>
    <path d="M266.883,149.572 C266.883,149.535 266.832,149.317 266.825,149.302 C266.788,149.227 266.662,149.122 266.481,149.21 C266.181,149.358 264.993,150.091 264.633,150.306 C264.52,150.38 264.317,150.498 264.472,150.814 C264.576,151.024 264.786,150.921 264.966,150.832 C265.687,150.477 265.739,150.583 265.798,150.703 C265.85,150.808 265.995,151.482 266.075,151.872 L266.409,153.424 C266.525,154.001 267.317,157.696 267.383,157.906 C267.485,158.304 267.581,158.499 267.669,158.679 C268.416,160.196 269.849,160.685 271.096,160.072 C272.973,159.148 273.966,156.123 272.873,153.9 C272.009,152.143 270.423,151.991 269.387,152.5 C268.606,152.884 268.159,153.645 267.9,154.257 z M270.904,159.644 C270.168,160.006 269.43,159.566 268.994,158.68 C268.721,158.125 268.605,157.548 268.191,155.644 C268.141,155.314 268.126,155.284 268.249,154.813 C268.494,153.872 269.008,153.209 269.548,152.943 C270.134,152.655 270.859,152.839 271.361,153.861 C271.664,154.476 272.087,156.171 272.065,157.263 C272.067,158.177 271.67,159.267 270.904,159.644 z" fill="#000000"/>
    <path d="M284.493,155.692 C284.461,155.628 284.44,155.585 283.896,155.4 C279.884,154.015 277.203,150.298 275.589,147.015 C273.752,143.282 272.732,139.148 274.051,135.168 C274.204,134.773 274.183,134.73 274.151,134.666 C274.077,134.516 273.96,134.494 273.831,134.557 C273.616,134.662 272.403,137.071 272.477,140.419 C272.544,143.317 273.458,145.825 274.344,147.627 C275.167,149.301 276.68,151.781 279.053,153.625 C281.638,155.631 284.169,156.118 284.384,156.012 C284.513,155.949 284.567,155.842 284.493,155.692 z" fill="#000000"/>
    <path d="M289.27,135.996 L285.368,132.613 C285.219,132.473 285.134,132.408 285.123,132.387 C285.06,132.258 285.224,131.671 286.083,131.142 C286.287,131.015 286.491,130.888 286.312,130.523 C286.185,130.266 285.928,130.392 285.863,130.424 C284.984,130.857 284.093,131.375 283.191,131.818 C282.655,132.082 281.293,132.672 280.757,132.936 C280.628,132.999 280.371,133.125 280.582,133.555 C280.698,133.791 280.912,133.685 281.191,133.548 C282.479,132.915 282.713,133.066 283.138,133.443 L288.614,138.184 L286.483,145.281 L286.32,145.654 C285.828,147.308 284.988,148.148 283.926,148.75 C283.657,148.909 283.464,149.004 283.665,149.411 C283.675,149.433 283.781,149.647 284.06,149.51 C284.703,149.194 285.38,148.781 286.045,148.454 C286.839,148.063 287.707,147.716 288.479,147.336 C288.608,147.273 288.866,147.146 288.655,146.717 C288.549,146.503 288.324,146.587 288.281,146.608 C288.077,146.681 287.391,146.966 287.096,146.365 C286.927,146.022 287.08,145.52 287.2,145.114 L288.249,141.721 L289.146,138.669 L293.835,142.731 C294.037,142.924 294.069,142.935 294.09,142.978 C294.174,143.15 293.946,143.715 293.151,144.212 C292.926,144.35 292.743,144.466 292.923,144.831 C293.049,145.089 293.285,144.972 293.371,144.93 C293.972,144.635 295.442,143.832 296.043,143.536 C296.579,143.272 297.92,142.693 298.456,142.429 C298.606,142.355 298.864,142.229 298.663,141.821 C298.537,141.564 298.322,141.669 298.151,141.754 C296.702,142.439 296.628,142.396 295.841,141.717 C294.023,140.133 290.939,137.493 289.812,136.449 C290.533,134.229 291.53,130.568 291.921,129.63 C292.29,128.809 292.852,127.893 294.107,127.195 C294.376,127.036 294.569,126.941 294.368,126.534 C294.358,126.512 294.252,126.298 293.973,126.435 C293.33,126.752 292.653,127.164 291.988,127.491 C291.194,127.882 290.347,128.218 289.575,128.598 C289.446,128.662 289.167,128.799 289.378,129.228 C289.452,129.378 289.591,129.39 289.752,129.337 C289.956,129.264 290.642,128.98 290.937,129.58 C291.085,129.881 290.986,130.276 290.91,130.553 z" fill="#000000"/>
    <path d="M306.221,131.948 C305.398,130.275 303.885,127.795 301.513,125.951 C298.928,123.945 296.396,123.458 296.182,123.563 C296.053,123.627 296.01,123.755 296.073,123.883 C296.105,123.948 296.126,123.991 296.723,124.176 C299.871,125.266 302.772,128.076 304.977,132.561 C306.782,136.229 307.845,140.396 306.514,144.408 C306.362,144.803 306.383,144.846 306.415,144.91 C306.478,145.039 306.606,145.082 306.735,145.019 C306.949,144.913 308.163,142.505 308.089,139.157 C308.022,136.259 307.108,133.751 306.221,131.948 z" fill="#000000"/>
    <path d="M234.489,262.937 C234.513,262.842 234.561,262.722 234.561,262.579 C234.561,262.363 234.441,262.363 233.963,262.363 L223.873,262.363 C223.299,262.363 223.275,262.387 223.132,262.842 L221.817,267.145 C221.769,267.265 221.745,267.432 221.745,267.48 C221.745,267.504 221.745,267.743 222.032,267.743 C222.247,267.743 222.295,267.576 222.343,267.504 C223.251,264.683 224.495,263.105 228.225,263.105 L232.122,263.105 L218.756,278.049 C218.756,278.072 218.66,278.407 218.66,278.479 C218.66,278.694 218.828,278.694 219.258,278.694 L229.659,278.694 C230.233,278.694 230.257,278.67 230.4,278.216 L232.098,272.932 C232.122,272.836 232.194,272.669 232.194,272.573 C232.194,272.454 232.098,272.31 231.883,272.31 C231.668,272.31 231.644,272.406 231.476,272.908 C230.424,276.16 229.277,277.881 225.212,277.881 L221.123,277.881 z" fill="#000000"/>
    <path d="M258.374,270.875 C258.733,270.875 259.187,270.875 259.187,270.397 C259.187,269.919 258.733,269.919 258.398,269.919 L244.076,269.919 C243.741,269.919 243.287,269.919 243.287,270.397 C243.287,270.875 243.741,270.875 244.1,270.875 z M258.398,275.514 C258.733,275.514 259.187,275.514 259.187,275.036 C259.187,274.558 258.733,274.558 258.374,274.558 L244.1,274.558 C243.741,274.558 243.287,274.558 243.287,275.036 C243.287,275.514 243.741,275.514 244.076,275.514 z" fill="#000000"/>
    <path d="M278.191,271.043 C278.191,269.13 278.072,267.217 277.235,265.448 C276.135,263.152 274.174,262.77 273.17,262.77 C271.735,262.77 269.99,263.392 269.01,265.615 C268.245,267.265 268.125,269.13 268.125,271.043 C268.125,272.836 268.221,274.988 269.201,276.805 C270.229,278.742 271.975,279.22 273.146,279.22 C274.437,279.22 276.254,278.718 277.307,276.447 C278.072,274.797 278.191,272.932 278.191,271.043 z M273.146,278.694 C272.214,278.694 270.803,278.096 270.373,275.801 C270.11,274.366 270.11,272.167 270.11,270.756 C270.11,269.226 270.11,267.648 270.301,266.356 C270.755,263.511 272.548,263.296 273.146,263.296 C273.935,263.296 275.513,263.726 275.968,266.093 C276.207,267.432 276.207,269.25 276.207,270.756 C276.207,272.549 276.207,274.175 275.944,275.705 C275.585,277.977 274.222,278.694 273.146,278.694 z" fill="#000000"/>
    <path d="M234.489,8.762 C234.513,8.666 234.561,8.547 234.561,8.403 C234.561,8.188 234.441,8.188 233.963,8.188 L223.873,8.188 C223.299,8.188 223.275,8.212 223.132,8.666 L221.817,12.97 C221.769,13.09 221.745,13.257 221.745,13.305 C221.745,13.329 221.745,13.568 222.032,13.568 C222.247,13.568 222.295,13.401 222.343,13.329 C223.251,10.507 224.495,8.929 228.225,8.929 L232.122,8.929 L218.756,23.873 C218.756,23.897 218.66,24.232 218.66,24.304 C218.66,24.519 218.828,24.519 219.258,24.519 L229.659,24.519 C230.233,24.519 230.257,24.495 230.4,24.041 L232.098,18.757 C232.122,18.661 232.194,18.493 232.194,18.398 C232.194,18.278 232.098,18.135 231.883,18.135 C231.668,18.135 231.644,18.23 231.476,18.733 C230.424,21.984 229.277,23.706 225.212,23.706 L221.123,23.706 z" fill="#000000"/>
    <path d="M258.374,16.7 C258.733,16.7 259.187,16.7 259.187,16.222 C259.187,15.744 258.733,15.744 258.398,15.744 L244.076,15.744 C243.741,15.744 243.287,15.744 243.287,16.222 C243.287,16.7 243.741,16.7 244.1,16.7 z M258.398,21.339 C258.733,21.339 259.187,21.339 259.187,20.861 C259.187,20.382 258.733,20.382 258.374,20.382 L244.1,20.382 C243.741,20.382 243.287,20.382 243.287,20.861 C243.287,21.339 243.741,21.339 244.076,21.339 z" fill="#000000"/>
    <path d="M282.943,19.02 C283.35,19.02 283.78,19.02 283.78,18.541 C283.78,18.063 283.35,18.063 282.943,18.063 L270.008,18.063 C269.601,18.063 269.171,18.063 269.171,18.541 C269.171,19.02 269.601,19.02 270.008,19.02 z" fill="#000000"/>
    <path d="M302.999,8.762 C303.023,8.666 303.071,8.547 303.071,8.403 C303.071,8.188 302.952,8.188 302.473,8.188 L292.383,8.188 C291.809,8.188 291.785,8.212 291.642,8.666 L290.327,12.97 C290.279,13.09 290.255,13.257 290.255,13.305 C290.255,13.329 290.255,13.568 290.542,13.568 C290.757,13.568 290.805,13.401 290.853,13.329 C291.762,10.507 293.005,8.929 296.735,8.929 L300.632,8.929 L287.266,23.873 C287.266,23.897 287.171,24.232 287.171,24.304 C287.171,24.519 287.338,24.519 287.769,24.519 L298.17,24.519 C298.743,24.519 298.767,24.495 298.911,24.041 L300.608,18.757 C300.632,18.661 300.704,18.493 300.704,18.398 C300.704,18.278 300.608,18.135 300.393,18.135 C300.178,18.135 300.154,18.23 299.987,18.733 C298.935,21.984 297.787,23.706 293.722,23.706 L289.634,23.706 z" fill="#000000"/>
    <path d="M311.011,21.931 C311.078,21.68 311.078,21.596 311.078,21.579 C311.078,21.211 310.776,21.044 310.508,21.044 C310.124,21.044 309.805,21.362 309.739,21.68 C309.454,21.228 308.885,20.726 308.015,20.726 C305.922,20.726 303.73,22.969 303.73,25.362 C303.73,27.086 304.902,28.107 306.274,28.107 C307.044,28.107 307.78,27.722 308.366,27.203 L307.998,28.709 C307.814,29.412 307.697,29.864 307.061,30.433 C306.324,31.053 305.604,31.053 305.186,31.053 C304.416,31.053 304.199,31.002 303.897,30.935 C304.316,30.735 304.433,30.333 304.433,30.099 C304.433,29.697 304.115,29.479 303.78,29.479 C303.311,29.479 302.826,29.864 302.826,30.5 C302.826,31.504 304.266,31.521 305.203,31.521 C307.831,31.521 308.952,30.182 309.186,29.228 z M308.701,25.881 C308.634,26.132 308.634,26.165 308.349,26.5 C307.764,27.203 306.96,27.638 306.324,27.638 C305.471,27.638 305.069,26.918 305.069,26.048 C305.069,25.312 305.521,23.437 305.956,22.701 C306.659,21.529 307.446,21.194 308.015,21.194 C309.186,21.194 309.504,22.45 309.504,22.617 C309.504,22.651 309.504,22.684 309.454,22.868 z" fill="#000000"/>
    <path d="M316.757,16.993 C316.773,16.96 316.823,16.742 316.823,16.726 C316.823,16.642 316.757,16.491 316.556,16.491 C316.221,16.491 314.832,16.625 314.413,16.659 C314.296,16.675 314.062,16.692 314.062,17.044 C314.062,17.278 314.296,17.278 314.48,17.278 C315.284,17.278 315.284,17.395 315.284,17.529 C315.284,17.646 315.25,17.747 315.217,17.897 L313.141,26.165 C313.091,26.333 313.074,26.517 313.074,26.684 C313.074,27.755 314.028,28.274 314.832,28.274 C315.233,28.274 315.736,28.14 316.171,27.387 C316.522,26.768 316.757,25.78 316.757,25.714 C316.757,25.496 316.539,25.496 316.489,25.496 C316.254,25.496 316.221,25.596 316.154,25.898 C315.936,26.734 315.618,27.806 314.899,27.806 C314.447,27.806 314.33,27.387 314.33,26.986 C314.33,26.801 314.38,26.483 314.43,26.299 z" fill="#000000"/>
    <path d="M1080.991,63.22 C1100.416,85.227 1109.674,111.678 1110.411,140.818 C1110.411,205.607 1057.889,258.129 993.099,258.129 C951.984,257.749 911.325,235.807 891.416,199.151 C954.607,153.84 1017.8,108.531 1080.991,63.22 z" fill="#CCEFFC"/>
    <path d="M891.916,199.651 L1081.492,63.72" fill-opacity="0" stroke="#000000" stroke-width="2"/>
    <path d="M116.493,83.326 C116.661,82.656 116.757,82.513 117.043,82.441 C117.259,82.393 118.048,82.393 118.55,82.393 C120.965,82.393 122.041,82.489 122.041,84.354 C122.041,84.713 121.945,85.645 121.849,86.267 C121.826,86.362 121.778,86.649 121.778,86.721 C121.778,86.865 121.849,87.032 122.065,87.032 C122.328,87.032 122.375,86.841 122.423,86.482 L123.069,82.322 C123.093,82.226 123.117,81.987 123.117,81.915 C123.117,81.652 122.877,81.652 122.471,81.652 L109.201,81.652 C108.627,81.652 108.603,81.676 108.436,82.13 L107.001,86.339 C106.977,86.386 106.858,86.721 106.858,86.769 C106.858,86.912 106.977,87.032 107.145,87.032 C107.384,87.032 107.408,86.912 107.551,86.53 C108.842,82.824 109.464,82.393 113.003,82.393 L113.935,82.393 C114.605,82.393 114.605,82.489 114.605,82.68 C114.605,82.824 114.533,83.111 114.509,83.182 L111.305,95.95 C111.09,96.835 111.018,97.098 108.46,97.098 C107.599,97.098 107.455,97.098 107.455,97.552 C107.455,97.839 107.718,97.839 107.862,97.839 C108.507,97.839 109.177,97.792 109.822,97.792 C110.492,97.792 111.185,97.768 111.855,97.768 C112.524,97.768 113.194,97.792 113.84,97.792 C114.533,97.792 115.25,97.839 115.92,97.839 C116.159,97.839 116.446,97.839 116.446,97.361 C116.446,97.098 116.254,97.098 115.633,97.098 C115.035,97.098 114.724,97.098 114.103,97.05 C113.409,96.979 113.218,96.907 113.218,96.524 C113.218,96.5 113.218,96.381 113.313,96.022 z" fill="#000000"/>
    <path d="M125.68,90.967 C125.68,90.699 125.479,90.331 125.01,90.331 C124.558,90.331 124.073,90.766 124.073,91.251 C124.073,91.536 124.29,91.887 124.742,91.887 C125.228,91.887 125.68,91.419 125.68,90.967 z M122.265,99.469 C122.198,99.687 122.114,99.888 122.114,100.172 C122.114,100.959 122.784,101.595 123.704,101.595 C125.378,101.595 126.115,99.285 126.115,99.034 C126.115,98.816 125.897,98.816 125.847,98.816 C125.613,98.816 125.596,98.917 125.529,99.101 C125.144,100.44 124.407,101.126 123.755,101.126 C123.42,101.126 123.336,100.908 123.336,100.54 C123.336,100.155 123.453,99.837 123.604,99.469 C123.771,99.017 123.955,98.565 124.14,98.13 C124.29,97.728 124.893,96.205 124.96,96.005 C125.01,95.837 125.06,95.636 125.06,95.469 C125.06,94.682 124.391,94.046 123.47,94.046 C121.813,94.046 121.043,96.323 121.043,96.607 C121.043,96.825 121.278,96.825 121.328,96.825 C121.562,96.825 121.579,96.741 121.629,96.557 C122.064,95.117 122.801,94.515 123.42,94.515 C123.688,94.515 123.838,94.649 123.838,95.101 C123.838,95.486 123.738,95.737 123.32,96.774 z" fill="#000000"/>
    <path d="M133.071,97.815 C133.071,96.237 132.473,95.305 131.541,95.305 C130.752,95.305 130.274,95.903 130.274,96.572 C130.274,97.218 130.752,97.839 131.541,97.839 C131.828,97.839 132.139,97.744 132.378,97.528 C132.449,97.481 132.473,97.457 132.497,97.457 C132.521,97.457 132.545,97.481 132.545,97.815 C132.545,99.585 131.708,101.019 130.919,101.808 C130.656,102.071 130.656,102.119 130.656,102.191 C130.656,102.358 130.776,102.454 130.895,102.454 C131.158,102.454 133.071,100.613 133.071,97.815 z" fill="#000000"/>
    <path d="M162.237,81.222 C162.237,81.15 162.189,80.983 161.974,80.983 C161.854,80.983 161.83,81.007 161.543,81.341 L160.396,82.704 C159.774,81.58 158.531,80.983 156.977,80.983 C153.94,80.983 151.071,83.732 151.071,86.625 C151.071,88.562 152.338,89.662 153.557,90.021 L156.116,90.69 C157.001,90.905 158.316,91.264 158.316,93.225 C158.316,95.377 156.355,97.624 154.012,97.624 C152.481,97.624 149.827,97.098 149.827,94.133 C149.827,93.559 149.947,92.985 149.971,92.842 C149.995,92.746 150.019,92.722 150.019,92.675 C150.019,92.436 149.851,92.412 149.732,92.412 C149.612,92.412 149.564,92.436 149.493,92.507 C149.397,92.603 148.058,98.054 148.058,98.126 C148.058,98.27 148.178,98.365 148.321,98.365 C148.441,98.365 148.465,98.341 148.751,98.007 L149.923,96.644 C150.951,98.031 152.577,98.365 153.964,98.365 C157.216,98.365 160.037,95.185 160.037,92.22 C160.037,90.571 159.224,89.758 158.866,89.423 C158.316,88.873 157.957,88.777 155.829,88.227 C155.303,88.084 154.442,87.845 154.227,87.797 C153.581,87.582 152.768,86.888 152.768,85.621 C152.768,83.684 154.681,81.652 156.953,81.652 C158.937,81.652 160.396,82.68 160.396,85.358 C160.396,86.123 160.3,86.554 160.3,86.697 C160.3,86.721 160.3,86.936 160.587,86.936 C160.826,86.936 160.85,86.865 160.946,86.458 z" fill="#000000"/>
    <path d="M166.9,90.967 C166.9,90.699 166.699,90.331 166.23,90.331 C165.778,90.331 165.293,90.766 165.293,91.251 C165.293,91.536 165.51,91.887 165.962,91.887 C166.448,91.887 166.9,91.419 166.9,90.967 z M163.485,99.469 C163.418,99.687 163.334,99.888 163.334,100.172 C163.334,100.959 164.004,101.595 164.924,101.595 C166.598,101.595 167.335,99.285 167.335,99.034 C167.335,98.816 167.117,98.816 167.067,98.816 C166.833,98.816 166.816,98.917 166.749,99.101 C166.364,100.44 165.627,101.126 164.975,101.126 C164.64,101.126 164.556,100.908 164.556,100.54 C164.556,100.155 164.673,99.837 164.824,99.469 C164.991,99.017 165.176,98.565 165.36,98.13 C165.51,97.728 166.113,96.205 166.18,96.005 C166.23,95.837 166.28,95.636 166.28,95.469 C166.28,94.682 165.611,94.046 164.69,94.046 C163.033,94.046 162.263,96.323 162.263,96.607 C162.263,96.825 162.498,96.825 162.548,96.825 C162.782,96.825 162.799,96.741 162.849,96.557 C163.284,95.117 164.021,94.515 164.64,94.515 C164.908,94.515 165.058,94.649 165.058,95.101 C165.058,95.486 164.958,95.737 164.54,96.774 z" fill="#000000"/>
    <path d="M651.403,166.789 C651.57,166.12 651.666,165.976 651.953,165.904 C652.168,165.857 652.957,165.857 653.459,165.857 C655.874,165.857 656.95,165.952 656.95,167.817 C656.95,168.176 656.854,169.108 656.758,169.73 C656.734,169.826 656.687,170.113 656.687,170.184 C656.687,170.328 656.758,170.495 656.974,170.495 C657.237,170.495 657.284,170.304 657.332,169.945 L657.978,165.785 C658.002,165.689 658.026,165.45 658.026,165.378 C658.026,165.115 657.786,165.115 657.38,165.115 L644.11,165.115 C643.536,165.115 643.512,165.139 643.345,165.594 L641.91,169.802 C641.886,169.85 641.767,170.184 641.767,170.232 C641.767,170.376 641.886,170.495 642.054,170.495 C642.293,170.495 642.317,170.376 642.46,169.993 C643.751,166.287 644.373,165.857 647.912,165.857 L648.844,165.857 C649.514,165.857 649.514,165.952 649.514,166.143 C649.514,166.287 649.442,166.574 649.418,166.646 L646.214,179.414 C645.999,180.298 645.927,180.561 643.369,180.561 C642.508,180.561 642.364,180.561 642.364,181.016 C642.364,181.303 642.628,181.303 642.771,181.303 C643.417,181.303 644.086,181.255 644.732,181.255 C645.401,181.255 646.094,181.231 646.764,181.231 C647.433,181.231 648.103,181.255 648.749,181.255 C649.442,181.255 650.159,181.303 650.829,181.303 C651.068,181.303 651.355,181.303 651.355,180.824 C651.355,180.561 651.163,180.561 650.542,180.561 C649.944,180.561 649.633,180.561 649.012,180.514 C648.318,180.442 648.127,180.37 648.127,179.988 C648.127,179.964 648.127,179.844 648.223,179.485 z" fill="#000000"/>
    <path d="M662.229,178.497 C661.877,177.945 661.308,177.509 660.505,177.509 C658.362,177.509 656.187,179.869 656.187,182.279 C656.187,183.903 657.275,185.058 658.714,185.058 C659.618,185.058 660.421,184.539 661.091,183.886 C661.409,184.89 662.379,185.058 662.815,185.058 C663.417,185.058 663.836,184.69 664.137,184.171 C664.505,183.518 664.723,182.564 664.723,182.497 C664.723,182.279 664.505,182.279 664.455,182.279 C664.22,182.279 664.204,182.346 664.087,182.798 C663.886,183.602 663.568,184.589 662.865,184.589 C662.43,184.589 662.312,184.221 662.312,183.769 C662.312,183.485 662.446,182.882 662.563,182.447 C662.681,181.995 662.848,181.309 662.932,180.941 L663.266,179.668 C663.367,179.233 663.568,178.447 663.568,178.363 C663.568,177.995 663.266,177.827 662.999,177.827 C662.714,177.827 662.329,178.028 662.229,178.497 z M661.158,182.798 C661.04,183.267 660.672,183.602 660.304,183.92 C660.153,184.054 659.484,184.589 658.764,184.589 C658.145,184.589 657.542,184.154 657.542,182.966 C657.542,182.079 658.028,180.238 658.413,179.568 C659.183,178.229 660.036,177.978 660.505,177.978 C661.676,177.978 661.994,179.25 661.994,179.434 C661.994,179.501 661.961,179.618 661.944,179.668 z" fill="#000000"/>
    <path d="M674.648,187.041 C674.648,186.969 674.648,186.921 674.242,186.515 C671.253,183.502 670.488,178.983 670.488,175.325 C670.488,171.165 671.396,167.004 674.337,164.015 C674.648,163.729 674.648,163.681 674.648,163.609 C674.648,163.442 674.552,163.37 674.409,163.37 C674.17,163.37 672.018,164.996 670.607,168.032 C669.388,170.663 669.101,173.316 669.101,175.325 C669.101,177.19 669.364,180.083 670.679,182.785 C672.113,185.726 674.17,187.28 674.409,187.28 C674.552,187.28 674.648,187.208 674.648,187.041 z" fill="#000000"/>
    <path d="M693.247,165.546 C693.271,165.45 693.318,165.331 693.318,165.187 C693.318,164.972 693.199,164.972 692.721,164.972 L682.63,164.972 C682.057,164.972 682.033,164.996 681.889,165.45 L680.574,169.754 C680.526,169.873 680.503,170.041 680.503,170.089 C680.503,170.113 680.503,170.352 680.789,170.352 C681.005,170.352 681.052,170.184 681.1,170.113 C682.009,167.291 683.252,165.713 686.982,165.713 L690.879,165.713 L677.514,180.657 C677.514,180.681 677.418,181.016 677.418,181.087 C677.418,181.303 677.585,181.303 678.016,181.303 L688.417,181.303 C688.991,181.303 689.014,181.279 689.158,180.824 L690.856,175.54 C690.879,175.445 690.951,175.277 690.951,175.182 C690.951,175.062 690.856,174.919 690.64,174.919 C690.425,174.919 690.401,175.014 690.234,175.516 C689.182,178.768 688.034,180.49 683.969,180.49 L679.881,180.49 z" fill="#000000"/>
    <path d="M700.975,175.325 C700.975,173.46 700.712,170.567 699.397,167.865 C697.962,164.924 695.906,163.37 695.667,163.37 C695.523,163.37 695.428,163.465 695.428,163.609 C695.428,163.681 695.428,163.729 695.882,164.159 C698.225,166.526 699.588,170.328 699.588,175.325 C699.588,179.414 698.703,183.622 695.739,186.635 C695.428,186.921 695.428,186.969 695.428,187.041 C695.428,187.184 695.523,187.28 695.667,187.28 C695.906,187.28 698.058,185.654 699.469,182.618 C700.688,179.988 700.975,177.333 700.975,175.325 z" fill="#000000"/>
    <path d="M708.216,181.279 C708.216,179.701 707.619,178.768 706.686,178.768 C705.897,178.768 705.419,179.366 705.419,180.035 C705.419,180.681 705.897,181.302 706.686,181.302 C706.973,181.302 707.284,181.207 707.523,180.992 C707.595,180.944 707.619,180.92 707.642,180.92 C707.666,180.92 707.69,180.944 707.69,181.279 C707.69,183.048 706.853,184.483 706.064,185.272 C705.801,185.535 705.801,185.582 705.801,185.654 C705.801,185.822 705.921,185.917 706.04,185.917 C706.303,185.917 708.216,184.076 708.216,181.279 z" fill="#000000"/>
    <path d="M737.382,164.685 C737.382,164.613 737.334,164.446 737.119,164.446 C736.999,164.446 736.976,164.47 736.689,164.804 L735.541,166.167 C734.919,165.044 733.676,164.446 732.122,164.446 C729.085,164.446 726.216,167.195 726.216,170.089 C726.216,172.025 727.483,173.125 728.703,173.484 L731.261,174.153 C732.146,174.369 733.461,174.727 733.461,176.688 C733.461,178.84 731.5,181.087 729.157,181.087 C727.627,181.087 724.973,180.561 724.973,177.596 C724.973,177.023 725.092,176.449 725.116,176.305 C725.14,176.21 725.164,176.186 725.164,176.138 C725.164,175.899 724.996,175.875 724.877,175.875 C724.757,175.875 724.71,175.899 724.638,175.97 C724.542,176.066 723.203,181.518 723.203,181.589 C723.203,181.733 723.323,181.829 723.466,181.829 C723.586,181.829 723.61,181.805 723.897,181.47 L725.068,180.107 C726.096,181.494 727.722,181.829 729.109,181.829 C732.361,181.829 735.182,178.648 735.182,175.684 C735.182,174.034 734.369,173.221 734.011,172.886 C733.461,172.336 733.102,172.24 730.974,171.691 C730.448,171.547 729.587,171.308 729.372,171.26 C728.726,171.045 727.914,170.352 727.914,169.084 C727.914,167.148 729.826,165.115 732.098,165.115 C734.082,165.115 735.541,166.143 735.541,168.821 C735.541,169.586 735.445,170.017 735.445,170.16 C735.445,170.184 735.445,170.399 735.732,170.399 C735.971,170.399 735.995,170.328 736.091,169.921 z" fill="#000000"/>
    <path d="M743.685,178.497 C743.333,177.945 742.764,177.509 741.961,177.509 C739.818,177.509 737.643,179.869 737.643,182.279 C737.643,183.903 738.731,185.058 740.17,185.058 C741.074,185.058 741.877,184.539 742.547,183.886 C742.865,184.89 743.835,185.058 744.271,185.058 C744.873,185.058 745.292,184.69 745.593,184.171 C745.961,183.518 746.179,182.564 746.179,182.497 C746.179,182.279 745.961,182.279 745.911,182.279 C745.676,182.279 745.66,182.346 745.543,182.798 C745.342,183.602 745.024,184.589 744.321,184.589 C743.886,184.589 743.768,184.221 743.768,183.769 C743.768,183.485 743.902,182.882 744.019,182.447 C744.137,181.995 744.304,181.309 744.388,180.941 L744.722,179.668 C744.823,179.233 745.024,178.447 745.024,178.363 C745.024,177.995 744.722,177.827 744.455,177.827 C744.17,177.827 743.785,178.028 743.685,178.497 z M742.614,182.798 C742.496,183.267 742.128,183.602 741.76,183.92 C741.609,184.054 740.94,184.589 740.22,184.589 C739.601,184.589 738.998,184.154 738.998,182.966 C738.998,182.079 739.484,180.238 739.869,179.568 C740.639,178.229 741.492,177.978 741.961,177.978 C743.132,177.978 743.45,179.25 743.45,179.434 C743.45,179.501 743.417,179.618 743.4,179.668 z" fill="#000000"/>
    <path d="M756.102,187.041 C756.102,186.969 756.102,186.921 755.695,186.515 C752.706,183.502 751.941,178.983 751.941,175.325 C751.941,171.165 752.85,167.004 755.791,164.015 C756.102,163.729 756.102,163.681 756.102,163.609 C756.102,163.442 756.006,163.37 755.862,163.37 C755.623,163.37 753.471,164.996 752.061,168.032 C750.841,170.663 750.554,173.316 750.554,175.325 C750.554,177.19 750.817,180.083 752.132,182.785 C753.567,185.726 755.623,187.28 755.862,187.28 C756.006,187.28 756.102,187.208 756.102,187.041 z" fill="#000000"/>
    <path d="M774.703,165.546 C774.727,165.45 774.774,165.331 774.774,165.187 C774.774,164.972 774.655,164.972 774.177,164.972 L764.086,164.972 C763.513,164.972 763.489,164.996 763.345,165.45 L762.03,169.754 C761.982,169.873 761.958,170.041 761.958,170.089 C761.958,170.113 761.958,170.352 762.245,170.352 C762.461,170.352 762.508,170.184 762.556,170.113 C763.465,167.291 764.708,165.713 768.438,165.713 L772.336,165.713 L758.97,180.657 C758.97,180.681 758.874,181.016 758.874,181.087 C758.874,181.303 759.041,181.303 759.472,181.303 L769.873,181.303 C770.447,181.303 770.471,181.279 770.614,180.824 L772.312,175.54 C772.336,175.445 772.407,175.277 772.407,175.182 C772.407,175.062 772.312,174.919 772.096,174.919 C771.881,174.919 771.857,175.014 771.69,175.516 C770.638,178.768 769.49,180.49 765.425,180.49 L761.337,180.49 z" fill="#000000"/>
    <path d="M782.428,175.325 C782.428,173.46 782.165,170.567 780.85,167.865 C779.416,164.924 777.359,163.37 777.12,163.37 C776.977,163.37 776.881,163.465 776.881,163.609 C776.881,163.681 776.881,163.729 777.336,164.159 C779.679,166.526 781.042,170.328 781.042,175.325 C781.042,179.414 780.157,183.622 777.192,186.635 C776.881,186.921 776.881,186.969 776.881,187.041 C776.881,187.184 776.977,187.28 777.12,187.28 C777.359,187.28 779.511,185.654 780.922,182.618 C782.142,179.988 782.428,177.333 782.428,175.325 z" fill="#000000"/>
    <path d="M997.481,234.467 C997.648,233.797 997.744,233.654 998.031,233.582 C998.246,233.534 999.035,233.534 999.537,233.534 C1001.952,233.534 1003.028,233.63 1003.028,235.495 C1003.028,235.854 1002.932,236.786 1002.837,237.408 C1002.813,237.503 1002.765,237.79 1002.765,237.862 C1002.765,238.006 1002.837,238.173 1003.052,238.173 C1003.315,238.173 1003.363,237.982 1003.41,237.623 L1004.056,233.463 C1004.08,233.367 1004.104,233.128 1004.104,233.056 C1004.104,232.793 1003.865,232.793 1003.458,232.793 L990.188,232.793 C989.614,232.793 989.59,232.817 989.423,233.271 L987.988,237.48 C987.964,237.527 987.845,237.862 987.845,237.91 C987.845,238.053 987.964,238.173 988.132,238.173 C988.371,238.173 988.395,238.053 988.538,237.671 C989.829,233.965 990.451,233.534 993.99,233.534 L994.922,233.534 C995.592,233.534 995.592,233.63 995.592,233.821 C995.592,233.965 995.52,234.252 995.496,234.323 L992.292,247.091 C992.077,247.976 992.005,248.239 989.447,248.239 C988.586,248.239 988.443,248.239 988.443,248.693 C988.443,248.98 988.706,248.98 988.849,248.98 C989.495,248.98 990.164,248.933 990.81,248.933 C991.479,248.933 992.173,248.909 992.842,248.909 C993.511,248.909 994.181,248.933 994.827,248.933 C995.52,248.933 996.237,248.98 996.907,248.98 C997.146,248.98 997.433,248.98 997.433,248.502 C997.433,248.239 997.241,248.239 996.62,248.239 C996.022,248.239 995.711,248.239 995.09,248.191 C994.396,248.12 994.205,248.048 994.205,247.665 C994.205,247.641 994.205,247.522 994.301,247.163 z" fill="#000000"/>
    <path d="M1008.082,248.956 C1008.082,247.378 1007.485,246.446 1006.552,246.446 C1005.763,246.446 1005.285,247.044 1005.285,247.713 C1005.285,248.359 1005.763,248.98 1006.552,248.98 C1006.839,248.98 1007.15,248.885 1007.389,248.67 C1007.461,248.622 1007.485,248.598 1007.509,248.598 C1007.532,248.598 1007.556,248.622 1007.556,248.956 C1007.556,250.726 1006.72,252.16 1005.931,252.949 C1005.667,253.212 1005.667,253.26 1005.667,253.332 C1005.667,253.499 1005.787,253.595 1005.907,253.595 C1006.17,253.595 1008.082,251.754 1008.082,248.956 z" fill="#000000"/>
    <path d="M1037.239,232.363 C1037.239,232.291 1037.191,232.124 1036.976,232.124 C1036.856,232.124 1036.832,232.148 1036.545,232.482 L1035.397,233.845 C1034.776,232.721 1033.532,232.124 1031.978,232.124 C1028.942,232.124 1026.072,234.873 1026.072,237.766 C1026.072,239.703 1027.34,240.803 1028.559,241.162 L1031.118,241.831 C1032.002,242.046 1033.317,242.405 1033.317,244.366 C1033.317,246.518 1031.357,248.765 1029.013,248.765 C1027.483,248.765 1024.829,248.239 1024.829,245.274 C1024.829,244.7 1024.949,244.127 1024.973,243.983 C1024.997,243.887 1025.02,243.864 1025.02,243.816 C1025.02,243.577 1024.853,243.553 1024.734,243.553 C1024.614,243.553 1024.566,243.577 1024.494,243.648 C1024.399,243.744 1023.06,249.196 1023.06,249.267 C1023.06,249.411 1023.179,249.506 1023.323,249.506 C1023.442,249.506 1023.466,249.482 1023.753,249.148 L1024.925,247.785 C1025.953,249.172 1027.579,249.506 1028.966,249.506 C1032.217,249.506 1035.039,246.326 1035.039,243.361 C1035.039,241.712 1034.226,240.899 1033.867,240.564 C1033.317,240.014 1032.959,239.918 1030.831,239.368 C1030.305,239.225 1029.444,238.986 1029.229,238.938 C1028.583,238.723 1027.77,238.029 1027.77,236.762 C1027.77,234.826 1029.683,232.793 1031.954,232.793 C1033.939,232.793 1035.397,233.821 1035.397,236.499 C1035.397,237.264 1035.302,237.695 1035.302,237.838 C1035.302,237.862 1035.302,238.077 1035.589,238.077 C1035.828,238.077 1035.852,238.006 1035.947,237.599 z" fill="#000000"/>
    <path d="M965.325,35.864 C965.492,35.195 965.588,35.051 965.875,34.98 C966.09,34.932 966.879,34.932 967.381,34.932 C969.796,34.932 970.872,35.028 970.872,36.893 C970.872,37.251 970.776,38.184 970.681,38.805 C970.657,38.901 970.609,39.188 970.609,39.26 C970.609,39.403 970.681,39.57 970.896,39.57 C971.159,39.57 971.207,39.379 971.255,39.021 L971.9,34.86 C971.924,34.765 971.948,34.525 971.948,34.454 C971.948,34.191 971.709,34.191 971.302,34.191 L958.032,34.191 C957.458,34.191 957.434,34.215 957.267,34.669 L955.832,38.877 C955.809,38.925 955.689,39.26 955.689,39.307 C955.689,39.451 955.809,39.57 955.976,39.57 C956.215,39.57 956.239,39.451 956.382,39.068 C957.674,35.362 958.295,34.932 961.834,34.932 L962.766,34.932 C963.436,34.932 963.436,35.028 963.436,35.219 C963.436,35.362 963.364,35.649 963.34,35.721 L960.136,48.489 C959.921,49.374 959.849,49.637 957.291,49.637 C956.43,49.637 956.287,49.637 956.287,50.091 C956.287,50.378 956.55,50.378 956.693,50.378 C957.339,50.378 958.008,50.33 958.654,50.33 C959.323,50.33 960.017,50.306 960.686,50.306 C961.356,50.306 962.025,50.33 962.671,50.33 C963.364,50.33 964.082,50.378 964.751,50.378 C964.99,50.378 965.277,50.378 965.277,49.9 C965.277,49.637 965.086,49.637 964.464,49.637 C963.866,49.637 963.555,49.637 962.934,49.589 C962.24,49.517 962.049,49.445 962.049,49.063 C962.049,49.039 962.049,48.919 962.145,48.561 z" fill="#000000"/>
    <path d="M974.511,43.505 C974.511,43.237 974.31,42.869 973.841,42.869 C973.389,42.869 972.904,43.304 972.904,43.79 C972.904,44.074 973.122,44.426 973.573,44.426 C974.059,44.426 974.511,43.957 974.511,43.505 z M971.096,52.008 C971.029,52.225 970.946,52.426 970.946,52.711 C970.946,53.497 971.615,54.133 972.536,54.133 C974.209,54.133 974.946,51.824 974.946,51.573 C974.946,51.355 974.728,51.355 974.678,51.355 C974.444,51.355 974.427,51.455 974.36,51.639 C973.975,52.979 973.239,53.665 972.586,53.665 C972.251,53.665 972.167,53.447 972.167,53.079 C972.167,52.694 972.285,52.376 972.435,52.008 C972.603,51.556 972.787,51.104 972.971,50.669 C973.122,50.267 973.724,48.744 973.791,48.543 C973.841,48.376 973.891,48.175 973.891,48.008 C973.891,47.221 973.222,46.585 972.301,46.585 C970.644,46.585 969.875,48.861 969.875,49.146 C969.875,49.363 970.109,49.363 970.159,49.363 C970.393,49.363 970.41,49.28 970.46,49.096 C970.895,47.656 971.632,47.053 972.251,47.053 C972.519,47.053 972.67,47.187 972.67,47.639 C972.67,48.024 972.569,48.275 972.151,49.313 z" fill="#000000"/>
    <path d="M981.903,50.354 C981.903,48.776 981.305,47.844 980.372,47.844 C979.583,47.844 979.105,48.441 979.105,49.111 C979.105,49.756 979.583,50.378 980.372,50.378 C980.659,50.378 980.97,50.282 981.209,50.067 C981.281,50.019 981.305,49.995 981.329,49.995 C981.353,49.995 981.377,50.019 981.377,50.354 C981.377,52.123 980.54,53.558 979.751,54.347 C979.488,54.61 979.488,54.658 979.488,54.73 C979.488,54.897 979.607,54.993 979.727,54.993 C979.99,54.993 981.903,53.152 981.903,50.354 z" fill="#000000"/>
    <path d="M1011.068,33.76 C1011.068,33.689 1011.02,33.521 1010.805,33.521 C1010.686,33.521 1010.662,33.545 1010.375,33.88 L1009.227,35.243 C1008.605,34.119 1007.362,33.521 1005.808,33.521 C1002.771,33.521 999.902,36.271 999.902,39.164 C999.902,41.101 1001.169,42.201 1002.389,42.559 L1004.947,43.229 C1005.832,43.444 1007.147,43.803 1007.147,45.763 C1007.147,47.915 1005.186,50.163 1002.843,50.163 C1001.313,50.163 998.659,49.637 998.659,46.672 C998.659,46.098 998.778,45.524 998.802,45.381 C998.826,45.285 998.85,45.261 998.85,45.213 C998.85,44.974 998.683,44.95 998.563,44.95 C998.444,44.95 998.396,44.974 998.324,45.046 C998.228,45.142 996.889,50.593 996.889,50.665 C996.889,50.808 997.009,50.904 997.152,50.904 C997.272,50.904 997.296,50.88 997.583,50.545 L998.754,49.182 C999.783,50.569 1001.408,50.904 1002.795,50.904 C1006.047,50.904 1008.868,47.724 1008.868,44.759 C1008.868,43.109 1008.056,42.296 1007.697,41.962 C1007.147,41.412 1006.788,41.316 1004.66,40.766 C1004.134,40.623 1003.273,40.383 1003.058,40.336 C1002.413,40.12 1001.6,39.427 1001.6,38.16 C1001.6,36.223 1003.513,34.191 1005.784,34.191 C1007.769,34.191 1009.227,35.219 1009.227,37.897 C1009.227,38.662 1009.131,39.092 1009.131,39.236 C1009.131,39.26 1009.131,39.475 1009.418,39.475 C1009.657,39.475 1009.681,39.403 1009.777,38.997 z" fill="#000000"/>
    <path d="M1015.731,43.505 C1015.731,43.237 1015.53,42.869 1015.061,42.869 C1014.609,42.869 1014.124,43.304 1014.124,43.79 C1014.124,44.074 1014.342,44.426 1014.793,44.426 C1015.279,44.426 1015.731,43.957 1015.731,43.505 z M1012.316,52.008 C1012.249,52.225 1012.166,52.426 1012.166,52.711 C1012.166,53.497 1012.835,54.133 1013.756,54.133 C1015.429,54.133 1016.166,51.824 1016.166,51.573 C1016.166,51.355 1015.948,51.355 1015.898,51.355 C1015.664,51.355 1015.647,51.455 1015.58,51.639 C1015.195,52.979 1014.459,53.665 1013.806,53.665 C1013.471,53.665 1013.388,53.447 1013.388,53.079 C1013.388,52.694 1013.505,52.376 1013.655,52.008 C1013.823,51.556 1014.007,51.104 1014.191,50.669 C1014.342,50.267 1014.944,48.744 1015.011,48.543 C1015.061,48.376 1015.111,48.175 1015.111,48.008 C1015.111,47.221 1014.442,46.585 1013.521,46.585 C1011.864,46.585 1011.095,48.861 1011.095,49.146 C1011.095,49.363 1011.329,49.363 1011.379,49.363 C1011.613,49.363 1011.63,49.28 1011.68,49.096 C1012.116,47.656 1012.852,47.053 1013.471,47.053 C1013.739,47.053 1013.89,47.187 1013.89,47.639 C1013.89,48.024 1013.789,48.275 1013.371,49.313 z" fill="#000000"/>
    <path d="M1015.391,117.179 C1015.135,116.533 1015.129,116.359 1015.32,116.131 C1015.466,115.964 1016.107,115.498 1016.514,115.201 C1018.473,113.772 1019.402,113.214 1020.493,114.739 C1020.703,115.033 1021.17,115.852 1021.456,116.417 C1021.493,116.509 1021.621,116.772 1021.663,116.831 C1021.748,116.948 1021.903,117.043 1022.078,116.915 C1022.291,116.76 1022.219,116.575 1022.047,116.254 L1020.138,112.469 C1020.102,112.377 1019.981,112.167 1019.94,112.108 C1019.785,111.893 1019.592,112.035 1019.262,112.275 L1008.496,120.124 C1008.03,120.463 1008.025,120.497 1008.155,120.968 L1009.451,125.258 C1009.46,125.311 1009.559,125.656 1009.587,125.695 C1009.671,125.812 1009.838,125.839 1009.973,125.74 C1010.167,125.599 1010.117,125.487 1010.009,125.089 C1008.89,121.294 1009.142,120.575 1012.013,118.482 L1012.77,117.93 C1013.313,117.534 1013.37,117.612 1013.481,117.769 C1013.565,117.886 1013.674,118.163 1013.697,118.236 L1018.564,130.574 C1018.906,131.425 1019.002,131.682 1016.927,133.196 C1016.228,133.705 1016.112,133.79 1016.377,134.161 C1016.545,134.396 1016.759,134.24 1016.876,134.156 C1017.399,133.774 1017.914,133.339 1018.437,132.957 C1018.981,132.561 1019.53,132.131 1020.072,131.735 C1020.616,131.339 1021.173,130.963 1021.697,130.581 C1022.259,130.171 1022.869,129.785 1023.412,129.389 C1023.606,129.248 1023.839,129.078 1023.559,128.687 C1023.406,128.472 1023.251,128.585 1022.746,128.953 C1022.261,129.307 1022.009,129.49 1021.477,129.819 C1020.872,130.17 1020.675,130.225 1020.452,129.912 C1020.437,129.892 1020.367,129.795 1020.235,129.445 z" fill="#000000"/>
    <path d="M1026.115,118.056 C1026.109,118.018 1026.023,117.811 1026.013,117.797 C1025.964,117.729 1025.821,117.645 1025.659,117.764 C1025.387,117.962 1024.339,118.893 1024.018,119.168 C1023.919,119.261 1023.74,119.413 1023.945,119.701 C1024.081,119.892 1024.272,119.754 1024.434,119.635 C1025.087,119.16 1025.155,119.255 1025.233,119.365 C1025.302,119.461 1025.558,120.107 1025.702,120.482 L1026.289,121.969 C1026.5,122.523 1027.897,126.066 1027.997,126.263 C1028.163,126.641 1028.291,126.819 1028.408,126.984 C1029.397,128.366 1030.892,128.609 1032.019,127.787 C1033.717,126.55 1034.192,123.371 1032.743,121.345 C1031.598,119.744 1030.008,119.861 1029.071,120.544 C1028.365,121.059 1028.052,121.892 1027.899,122.544 z M1031.759,127.394 C1031.093,127.879 1030.293,127.568 1029.715,126.76 C1029.352,126.253 1029.142,125.699 1028.417,123.875 C1028.312,123.555 1028.293,123.528 1028.335,123.039 C1028.421,122.06 1028.816,121.313 1029.305,120.957 C1029.835,120.571 1030.58,120.631 1031.246,121.562 C1031.647,122.124 1032.346,123.738 1032.507,124.829 C1032.661,125.737 1032.452,126.889 1031.759,127.394 z" fill="#000000"/>
    <path d="M1038.647,118.253 C1037.725,116.962 1036.694,116.553 1035.937,117.104 C1035.298,117.571 1035.259,118.343 1035.65,118.891 C1036.028,119.419 1036.78,119.644 1037.419,119.177 C1037.653,119.008 1037.848,118.746 1037.917,118.428 C1037.947,118.347 1037.952,118.313 1037.972,118.299 C1037.991,118.285 1038.025,118.29 1038.22,118.564 C1039.255,120.011 1039.415,121.679 1039.236,122.791 C1039.176,123.162 1039.204,123.201 1039.246,123.26 C1039.344,123.397 1039.497,123.404 1039.594,123.334 C1039.807,123.178 1040.283,120.541 1038.647,118.253 z" fill="#000000"/>
    <path d="M1052.606,87.43 C1052.564,87.371 1052.427,87.263 1052.253,87.39 C1052.156,87.46 1052.151,87.494 1052.113,87.938 L1051.979,89.731 C1050.818,89.18 1049.459,89.426 1048.199,90.346 C1045.734,92.142 1045.015,96.088 1046.707,98.454 C1047.839,100.038 1049.511,100.188 1050.709,99.76 L1053.176,98.794 C1054.02,98.447 1055.297,97.963 1056.443,99.566 C1057.702,101.326 1057.426,104.324 1055.524,105.71 C1054.283,106.615 1051.822,107.755 1050.089,105.33 C1049.753,104.861 1049.514,104.321 1049.45,104.189 C1049.413,104.097 1049.418,104.063 1049.39,104.024 C1049.25,103.828 1049.101,103.908 1049.004,103.979 C1048.907,104.049 1048.882,104.097 1048.866,104.198 C1048.844,104.333 1050.946,109.584 1050.988,109.642 C1051.071,109.76 1051.224,109.767 1051.341,109.682 C1051.438,109.612 1051.443,109.578 1051.48,109.135 L1051.634,107.327 C1053.279,107.853 1054.793,107.165 1055.919,106.345 C1058.557,104.421 1058.987,100.152 1057.253,97.727 C1056.288,96.377 1055.153,96.193 1054.666,96.132 C1053.898,96.007 1053.552,96.141 1051.504,96.95 C1050.993,97.144 1050.154,97.457 1049.952,97.545 C1049.303,97.751 1048.238,97.665 1047.497,96.628 C1046.365,95.045 1046.728,92.251 1048.571,90.907 C1050.181,89.733 1051.965,89.712 1053.53,91.902 C1053.978,92.528 1054.152,92.936 1054.237,93.054 C1054.25,93.073 1054.376,93.249 1054.609,93.08 C1054.803,92.938 1054.781,92.865 1054.62,92.476 z" fill="#000000"/>
    <path d="M1060.89,92.702 C1060.884,92.665 1060.798,92.458 1060.789,92.444 C1060.739,92.376 1060.597,92.292 1060.434,92.411 C1060.163,92.609 1059.113,93.54 1058.794,93.815 C1058.695,93.908 1058.514,94.06 1058.72,94.347 C1058.857,94.539 1059.047,94.4 1059.21,94.282 C1059.862,93.806 1059.93,93.902 1060.009,94.012 C1060.078,94.108 1060.333,94.754 1060.477,95.128 L1061.064,96.615 C1061.275,97.17 1062.671,100.712 1062.772,100.91 C1062.939,101.288 1063.066,101.466 1063.184,101.63 C1064.173,103.013 1065.667,103.256 1066.795,102.434 C1068.492,101.197 1068.966,98.018 1067.518,95.992 C1066.373,94.391 1064.784,94.508 1063.847,95.191 C1063.141,95.706 1062.827,96.538 1062.675,97.191 z M1066.534,102.041 C1065.869,102.526 1065.067,102.214 1064.49,101.407 C1064.128,100.9 1063.918,100.346 1063.192,98.522 C1063.087,98.202 1063.068,98.175 1063.11,97.686 C1063.195,96.707 1063.592,95.96 1064.081,95.604 C1064.61,95.218 1065.356,95.278 1066.02,96.209 C1066.423,96.77 1067.122,98.385 1067.282,99.476 C1067.436,100.384 1067.226,101.536 1066.534,102.041 z" fill="#000000"/>
    <path d="M651.769,72.327 C634.196,72.327 619.95,58.081 619.95,40.508 C619.95,22.934 634.196,8.688 651.769,8.688 C669.343,8.688 683.589,22.934 683.589,40.508 C683.589,58.081 669.343,72.327 651.769,72.327 z" fill-opacity="0" stroke="#000000" stroke-width="2" stroke-dasharray="6,4"/>
    <path d="M933.527,243.74 L639.676,70.257" fill-opacity="0" stroke="#000000" stroke-width="1"/>
    <path d="M998.903,25.082 L651.769,8.688" fill-opacity="0" stroke="#000000" stroke-width="1"/>
    <path d="M893.758,175.377 L889.991,170.307 L887.819,172.194 L888.187,172.689 C889.307,171.858 889.518,171.874 890.1,172.658 L897.182,182.191 L897.582,181.893 C897.586,181.866 897.548,181.547 897.421,180.474 C897.934,180.664 899.2,180.964 900.384,180.085 C902.287,178.671 902.786,175.868 901.253,173.805 C899.744,171.773 897,171.354 895.177,172.709 C893.929,173.636 893.8,174.899 893.758,175.377 z M896.931,179.547 L894.483,176.253 C894.258,175.949 894.246,175.933 894.232,175.546 C894.19,174.187 894.974,173.406 895.358,173.12 C896.078,172.586 896.963,172.574 897.798,172.896 C898.701,173.243 899.426,174.119 899.914,174.775 C900.353,175.367 901.034,176.35 901.105,177.414 C901.138,178.16 900.922,179.139 900.058,179.781 C899.339,180.315 898.478,180.359 897.654,180.053 C897.181,179.883 897.145,179.835 896.931,179.547 z" fill="#000000"/>
    <path d="M909.811,167.496 C908.29,165.448 905.431,164.941 903.496,166.379 C901.497,167.865 901.241,170.761 902.726,172.76 C904.259,174.823 907.063,175.123 908.934,173.732 C910.87,172.295 911.32,169.527 909.811,167.496 z M908.653,173.321 C907.965,173.832 907.012,174.019 906.034,173.604 C905.111,173.197 904.386,172.221 903.958,171.646 C903.495,171.022 902.853,170.158 902.714,169.169 C902.599,168.113 903.102,167.218 903.741,166.743 C904.445,166.22 905.394,166.061 906.321,166.44 C907.248,166.819 907.937,167.746 908.389,168.354 C908.817,168.93 909.458,169.793 909.629,170.759 C909.812,171.74 909.453,172.726 908.653,173.321 z" fill="#000000"/>
    <path d="M918.133,164.664 L919.202,166.103 L921.375,164.216 L921.006,163.721 C919.887,164.552 919.676,164.535 919.093,163.752 L914.875,158.074 L912.655,159.997 L913.023,160.492 C914.143,159.661 914.354,159.678 914.936,160.461 L917.051,163.308 C918.085,164.7 918.125,166.358 916.958,167.225 C915.614,168.223 914.992,167.519 914.374,166.687 L910.429,161.377 L908.208,163.3 L908.577,163.796 C909.824,162.869 909.86,162.917 910.917,164.34 L912.7,166.74 C913.627,167.987 914.708,169.443 917.139,167.636 C918.035,166.971 918.406,166 918.133,164.664 z" fill="#000000"/>
    <path d="M919.376,157.163 L922.56,161.449 C923.095,162.169 922.919,162.299 921.848,163.096 L922.216,163.591 C922.764,163.159 923.556,162.521 923.988,162.201 C924.404,161.892 925.259,161.306 925.815,160.918 L925.446,160.422 C924.375,161.218 924.199,161.349 923.664,160.629 L921.478,157.686 C920.242,156.023 920.712,154.283 921.736,153.523 C922.743,152.774 923.561,153.507 924.238,154.419 L927.007,158.145 C927.542,158.865 927.366,158.996 926.294,159.792 L926.662,160.288 C927.21,159.856 928.002,159.218 928.434,158.897 C928.85,158.588 929.705,158.002 930.261,157.614 L929.893,157.118 C929.061,157.736 928.661,158.033 928.289,157.565 L926.019,154.51 C924.997,153.135 924.629,152.639 923.705,152.432 C923.279,152.326 922.514,152.398 921.586,153.088 C920.419,153.955 920.178,155.201 920.467,156.526 L919.219,154.846 L917.094,156.698 L917.463,157.194 C918.582,156.362 918.794,156.379 919.376,157.163 z" fill="#000000"/>
    <path d="M936.015,151.974 L936.799,153.03 L939.019,151.107 L938.651,150.611 C937.531,151.443 937.32,151.426 936.738,150.642 L929.525,140.934 L927.353,142.821 L927.721,143.317 C928.841,142.485 929.052,142.502 929.634,143.286 L932.201,146.74 C931.309,146.509 930.312,146.604 929.449,147.246 C927.561,148.648 927.047,151.463 928.58,153.527 C930.089,155.558 932.832,155.977 934.656,154.622 C935.679,153.861 935.995,152.783 936.015,151.974 z M932.83,147.688 L935.266,150.966 C935.48,151.254 935.504,151.286 935.53,151.689 C935.62,152.813 935.162,153.7 934.474,154.211 C933.755,154.745 932.87,154.757 932.034,154.435 C931.131,154.088 930.406,153.212 929.919,152.556 C929.479,151.964 928.798,150.981 928.727,149.917 C928.695,149.171 928.91,148.192 929.774,147.55 C930.334,147.134 931.184,146.875 932.214,147.227 C932.592,147.368 932.616,147.4 932.83,147.688 z" fill="#000000"/>
    <path d="M943.9,145.594 C944.439,146.187 945.37,146.538 946.122,145.979 C946.458,145.73 947.267,144.781 946.304,143.485 L945.639,142.59 L945.239,142.887 L945.904,143.782 C946.594,144.71 946.265,145.103 946.089,145.234 C945.561,145.626 944.963,144.954 944.903,144.874 L942.526,141.675 C942.028,141.003 941.564,140.379 940.549,140.215 C939.461,140.055 938.471,140.393 937.704,140.964 C936.392,141.938 935.847,143.51 936.632,144.565 C936.988,145.045 937.51,145.079 937.926,144.77 C938.374,144.438 938.424,143.904 938.115,143.488 C937.972,143.296 937.5,142.828 936.753,143.358 C936.768,142.478 937.422,141.72 937.933,141.339 C938.717,140.757 940.092,140.704 941.15,142.127 L941.589,142.719 C940.809,143.373 939.725,144.253 939.074,145.481 C938.279,146.916 938.497,148.045 939.02,148.749 C939.982,150.044 941.831,149.291 942.838,148.543 C943.894,147.758 944.154,146.572 943.9,145.594 z M941.839,143.055 L943.027,144.654 C944.156,146.173 943.409,147.573 942.689,148.108 C941.905,148.69 940.833,148.617 940.239,147.818 C939.586,146.938 939.271,145.111 941.839,143.055 z" fill="#000000"/>
    <path d="M946.2,137.531 L944.892,135.772 L942.8,137.599 L943.168,138.095 C944.288,137.263 944.499,137.28 945.081,138.064 L948.266,142.35 C948.801,143.07 948.625,143.201 947.553,143.997 L947.922,144.493 C948.534,144.013 949.261,143.423 949.709,143.09 C950.349,142.615 951.101,142.056 951.776,141.629 L951.408,141.133 L951.072,141.383 C949.888,142.262 949.726,142.11 949.298,141.534 L947.468,139.071 C946.291,137.488 945.906,135.565 947.121,134.662 C947.233,134.579 947.265,134.555 947.309,134.547 C947.273,134.599 947.096,135.029 947.405,135.444 C947.737,135.892 948.251,135.883 948.603,135.621 C948.891,135.407 949.148,134.918 948.768,134.406 C948.388,133.895 947.547,133.799 946.86,134.31 C945.692,135.178 945.913,136.677 946.2,137.531 z" fill="#000000"/>
    <path d="M956.384,129.865 C956.051,128.549 956.855,127.927 957.11,127.737 L956.742,127.241 C956.398,127.546 955.946,127.907 955.578,128.18 C955.29,128.394 954.515,128.921 954.151,129.166 L954.519,129.662 C955.027,129.309 955.485,129.391 955.782,129.791 C955.901,129.951 955.909,129.995 955.971,130.246 L957.279,135.381 L952.307,132.398 C952.125,132.285 952.045,132.245 951.997,132.181 C951.688,131.765 952.28,131.326 952.584,131.1 L952.216,130.604 C951.812,130.929 950.78,131.745 950.508,131.947 C950.076,132.268 949.425,132.727 948.921,133.052 L949.289,133.548 C950.057,132.977 950.361,132.751 951.001,133.145 L957.737,137.2 C957.812,137.468 957.98,138.162 958.038,138.441 C958.34,139.582 958.712,141.018 957.689,141.779 C957.609,141.838 957.241,142.112 956.723,142.049 C957.171,141.617 957.038,141.17 956.848,140.914 C956.539,140.498 956.045,140.468 955.677,140.742 C955.357,140.979 955.16,141.449 955.516,141.928 C956.051,142.648 957.15,142.725 957.95,142.131 C958.958,141.382 958.936,139.983 958.643,138.786 z" fill="#000000"/>
    <path d="M962.09,116.739 L959.918,118.626 L960.286,119.122 C961.406,118.29 961.617,118.307 962.199,119.091 L968.378,127.408 C968.913,128.127 968.737,128.258 967.666,129.054 L968.034,129.55 C968.55,129.142 969.374,128.48 969.774,128.183 C970.174,127.886 970.981,127.335 971.585,126.912 L971.216,126.416 C970.145,127.212 969.969,127.343 969.434,126.623 z" fill="#000000"/>
    <path d="M976.372,121.468 C976.912,122.061 977.843,122.412 978.594,121.853 C978.93,121.603 979.739,120.655 978.777,119.359 L978.111,118.464 L977.712,118.761 L978.377,119.656 C979.066,120.584 978.738,120.977 978.562,121.108 C978.034,121.5 977.435,120.828 977.376,120.748 L974.999,117.549 C974.5,116.877 974.037,116.253 973.021,116.089 C971.934,115.929 970.944,116.267 970.176,116.838 C968.865,117.812 968.32,119.384 969.104,120.439 C969.461,120.919 969.982,120.953 970.398,120.644 C970.846,120.312 970.896,119.778 970.587,119.362 C970.445,119.17 969.973,118.702 969.225,119.232 C969.241,118.352 969.894,117.594 970.406,117.213 C971.19,116.631 972.565,116.577 973.622,118.001 L974.062,118.593 C973.282,119.247 972.198,120.126 971.547,121.355 C970.751,122.79 970.97,123.919 971.492,124.622 C972.455,125.918 974.303,125.165 975.311,124.417 C976.367,123.632 976.627,122.446 976.372,121.468 z M974.312,118.929 L975.5,120.528 C976.629,122.047 975.881,123.447 975.162,123.981 C974.378,124.564 973.306,124.491 972.712,123.691 C972.058,122.812 971.744,120.985 974.312,118.929 z" fill="#000000"/>
    <path d="M982.143,110.727 C981.811,109.41 982.614,108.788 982.87,108.598 L982.502,108.102 C982.158,108.407 981.706,108.768 981.338,109.041 C981.05,109.255 980.275,109.782 979.911,110.027 L980.279,110.523 C980.787,110.171 981.245,110.252 981.542,110.652 C981.661,110.812 981.669,110.856 981.731,111.107 L983.039,116.242 L978.067,113.259 C977.884,113.146 977.805,113.106 977.757,113.042 C977.448,112.626 978.04,112.187 978.344,111.961 L977.976,111.465 C977.572,111.79 976.54,112.606 976.268,112.808 C975.836,113.129 975.185,113.589 974.681,113.913 L975.049,114.409 C975.817,113.838 976.121,113.613 976.761,114.006 L983.497,118.061 C983.572,118.329 983.74,119.023 983.798,119.302 C984.1,120.443 984.472,121.88 983.449,122.64 C983.369,122.699 983.001,122.973 982.483,122.911 C982.931,122.478 982.798,122.031 982.608,121.775 C982.299,121.36 981.805,121.33 981.437,121.603 C981.117,121.84 980.92,122.31 981.276,122.79 C981.811,123.509 982.91,123.586 983.71,122.992 C984.718,122.243 984.696,120.844 984.403,119.647 z" fill="#000000"/>
    <path d="M986.289,109.732 C984.615,107.277 985.661,105.879 986.205,105.475 C987.852,104.251 989.616,106.292 990.08,106.915 z M986.523,110.079 L990.985,106.764 C991.337,106.503 991.385,106.467 991.135,106.131 C989.959,104.548 987.943,103.638 985.943,105.123 C984.088,106.502 983.841,109.242 985.326,111.242 C986.918,113.385 989.75,113.688 991.59,112.322 C993.541,110.872 992.942,108.562 992.716,108.258 C992.597,108.098 992.445,108.161 992.365,108.221 C992.221,108.328 992.261,108.448 992.324,108.599 C992.988,110.662 991.548,111.732 991.389,111.851 C990.589,112.445 989.593,112.44 988.785,112.122 C987.735,111.711 986.951,110.655 986.523,110.079 z" fill="#000000"/>
    <path d="M993.326,102.518 L992.019,100.758 L989.926,102.586 L990.295,103.082 C991.414,102.25 991.625,102.267 992.208,103.051 L995.392,107.337 C995.927,108.057 995.751,108.188 994.68,108.984 L995.048,109.479 C995.66,109 996.388,108.41 996.836,108.077 C997.475,107.602 998.227,107.043 998.903,106.616 L998.534,106.12 L998.198,106.369 C997.015,107.249 996.852,107.097 996.424,106.521 L994.594,104.058 C993.418,102.474 993.032,100.552 994.248,99.649 C994.359,99.565 994.391,99.542 994.435,99.534 C994.399,99.586 994.222,100.015 994.531,100.431 C994.864,100.879 995.378,100.869 995.73,100.608 C996.018,100.394 996.275,99.905 995.895,99.393 C995.514,98.881 994.674,98.786 993.986,99.297 C992.819,100.164 993.039,101.664 993.326,102.518 z" fill="#000000"/>
    <g clip-path="url(#Clip_3)">
      <g clip-path="url(#Clip_2)">
        <path d="M879.044,42.869 L1081.492,42.869 L1081.492,199.651 L879.044,199.651 z" fill="url(#Pattern_1)"/>
      </g>
    </g>
    <path d="M993.599,259.704 C928.81,259.704 876.288,207.182 876.288,142.393 C876.288,77.604 928.81,25.082 993.599,25.082 C1058.389,25.082 1110.911,77.604 1110.911,142.393 C1110.911,207.182 1058.389,259.704 993.599,259.704 z" fill-opacity="0" stroke="#000000" stroke-width="2" stroke-dasharray="6,4"/>
  </g>
</svg>
